<svg id="Group_260" data-name="Group 260" xmlns="http://www.w3.org/2000/svg" width="15" height="15" viewBox="0 0 15 15">
  <path id="Path_406" data-name="Path 406" d="M14.78,13.613h-.609v-5.6a.22.22,0,0,0-.439,0v5.6H12.4V5.826h1.336V6.987a.22.22,0,1,0,.439,0V5.606a.22.22,0,0,0-.22-.22H12.176a.22.22,0,0,0-.22.22v8.007h-.863V9.394a.22.22,0,0,0-.22-.22H9.1a.22.22,0,0,0-.22.22v4.219H8.016V7.618A.22.22,0,0,0,7.8,7.4H6.02a.22.22,0,0,0-.22.22v5.995H4.938V11.466a.22.22,0,0,0-.22-.22H2.942a.22.22,0,0,0-.22.22v2.148H1.387V12.4h.49a.22.22,0,1,0,0-.439h-.49V9.111h.49a.22.22,0,0,0,0-.439h-.49V5.826h.49a.22.22,0,1,0,0-.439h-.49V2.541h.49a.22.22,0,1,0,0-.439h-.49V.22A.22.22,0,0,0,1.167,0H.22A.22.22,0,0,0,0,.22V3.926a.22.22,0,1,0,.439,0V.439H.947V13.833a.22.22,0,0,0,.22.22H14.561v.508H.693a.254.254,0,0,1-.254-.254V4.951a.22.22,0,1,0-.439,0v9.356A.694.694,0,0,0,.693,15H14.78a.22.22,0,0,0,.22-.22v-.947a.22.22,0,0,0-.22-.22Zm-5.462-4h1.336v4H9.318ZM6.24,7.838H7.576v5.775H6.24ZM3.162,11.685H4.5v1.928H3.162Z" transform="translate(0 0)" fill="#fff"/>
  <path id="Path_407" data-name="Path 407" d="M107.781,43.858a.685.685,0,0,0,.422-.144l2.71-2.085,2.676,1.544a.7.7,0,0,0,.866-.142l1.966-2.231a.691.691,0,0,0,.65.452h.028a.694.694,0,0,0,.665-.721l-.059-1.479a.693.693,0,0,0-.721-.665l-1.478.059a.693.693,0,0,0-.074,1.378l-1.642,1.863-.829-.479a.22.22,0,0,0-.22.381l.985.568a.22.22,0,0,0,.275-.045l2.09-2.371a.22.22,0,0,0-.174-.365l-.372.015a.254.254,0,1,1-.02-.507L117,38.828a.254.254,0,0,1,.264.243l.059,1.479a.254.254,0,0,1-.244.264h-.01a.253.253,0,0,1-.253-.244l-.012-.3a.22.22,0,0,0-.384-.136l-2.3,2.606a.255.255,0,0,1-.317.052l-2.8-1.617a.219.219,0,0,0-.244.016l-2.827,2.175a.254.254,0,0,1-.355-.046.254.254,0,0,1,.046-.356L110.7,40.6a.253.253,0,0,1,.282-.019l.869.5a.22.22,0,0,0,.22-.381l-.869-.5a.691.691,0,0,0-.769.051l-3.078,2.367a.693.693,0,0,0,.423,1.243Z" transform="translate(-103.95 -37.263)" fill="#fff"/>
</svg>
